<svg xmlns="http://www.w3.org/2000/svg" viewBox="0 0 93 27" class="header-mobile__logo-icon">
<path fill="none" d="M-1-1h107v102H-1z"></path>
<g fill="rgb(0, 45, 69)">
<path d="M29.762 26.657c.875 0 1.78-.355 2.714-1.067.935-.711 1.82-1.586 2.653-2.622.386-.447.58-1.078.58-1.89 0-.428-.078-.763-.23-1.007-.152-.244-.36-.366-.624-.366-.305 0-.58.142-.824.427-.935 1.118-1.677 1.926-2.226 2.424-.548.498-1.016.747-1.402.747a.738.738 0 01-.595-.274c-.152-.183-.228-.427-.228-.732 0-.915.233-2.541.7-4.879.306-1.606.458-2.622.458-3.049 0-.711-.498-1.067-1.494-1.067-.467 0-.915.04-1.342.122-.101-.447-.228-.757-.38-.93-.153-.173-.453-.26-.9-.26-1.403 0-2.73.443-3.98 1.327-1.25.884-2.25 2.053-3.003 3.507a9.913 9.913 0 00-1.128 4.62c0 1.483.376 2.682 1.128 3.597.752.915 1.759 1.372 3.019 1.372 1.606 0 2.937-.854 3.994-2.561.285.793.707 1.418 1.266 1.875.559.458 1.174.686 1.844.686zm-6.006-3.08c-.448 0-.798-.152-1.052-.457-.254-.305-.382-.772-.382-1.402 0-1.139.214-2.216.64-3.233.428-1.016 1.002-1.834 1.724-2.454.72-.62 1.509-.94 2.363-.96l-1.13 5.61c-.182.874-.477 1.575-.884 2.104-.406.528-.833.793-1.28.793v-.001zm27.32 3.08c1.28 0 2.424-.345 3.43-1.036 1.007-.692 1.947-1.576 2.82-2.653.387-.447.58-1.078.58-1.89 0-.428-.076-.763-.23-1.007-.151-.244-.36-.366-.623-.366-.305 0-.58.142-.824.427-.935 1.118-1.682 1.926-2.24 2.424-.56.498-1.043.747-1.45.747-.59 0-.884-.406-.884-1.22 0-.569.193-1.738.58-3.506.446-2.074.67-3.507.67-4.3 0-1.32-.66-1.981-1.982-1.981-1.078 0-2.236.569-3.476 1.707-1.24 1.139-2.368 2.958-3.385 5.458.062-.366.174-.915.337-1.646.385-1.708.578-2.887.578-3.537 0-.671-.147-1.17-.441-1.495-.296-.325-.799-.487-1.51-.487-.712 0-1.469.269-2.272.808-.802.538-1.585 1.357-2.347 2.454-.762 1.098-1.418 2.44-1.967 4.025.08-.894.183-1.641.305-2.241.122-.6.285-1.306.488-2.12.305-1.138.457-1.87.457-2.195 0-.284-.081-.477-.244-.579-.162-.102-.447-.152-.853-.152-.754 0-1.338.137-1.755.411-.415.275-.715.707-.9 1.296-.75 2.379-1.126 4.889-1.126 7.532 0 1.788.157 3.09.472 3.903.315.813.86 1.22 1.632 1.22.63 0 1.092-.168 1.387-.504.295-.335.554-.98.777-1.936a27.09 27.09 0 011.052-3.354c.438-1.139.89-2.074 1.357-2.805.468-.732.854-1.098 1.159-1.098.223 0 .334.162.334.488 0 .406-.08 1.26-.242 2.561-.205 1.464-.306 2.582-.306 3.354 0 .915.168 1.692.504 2.333.334.64.837.96 1.508.96.65 0 1.124-.162 1.419-.488.294-.325.553-.975.776-1.951a22.06 22.06 0 011.19-3.537c.488-1.118.975-2.018 1.463-2.699.489-.68.865-1.021 1.129-1.021.223 0 .335.162.335.488 0 .488-.132 1.372-.397 2.653-.283 1.463-.425 2.48-.425 3.049 0 1.138.263 2.007.791 2.607.53.6 1.313.9 2.349.9v-.001zm9.026 0a5.83 5.83 0 003.339-1.021c1.005-.681 1.803-1.626 2.392-2.836.59-1.21.886-2.587.886-4.132a7.758 7.758 0 00-.64-3.14 5.548 5.548 0 00-1.922-2.363c-.854-.6-1.88-.9-3.08-.9-1.24 0-2.357.34-3.354 1.022-.996.68-1.783 1.626-2.363 2.835-.58 1.21-.87 2.587-.87 4.132 0 1.118.215 2.165.64 3.14a5.602 5.602 0 001.907 2.364c.844.6 1.865.9 3.065.9v-.001zm.335-3.293c-.61 0-1.118-.274-1.524-.823-.407-.549-.61-1.403-.61-2.561 0-1.464.239-2.567.716-3.309.478-.742 1.083-1.113 1.815-1.113.568 0 1.056.285 1.462.854.408.57.61 1.413.61 2.53 0 1.444-.238 2.542-.716 3.294-.477.752-1.062 1.128-1.753 1.128zm13.356 3.964c1.117 0 2.082-.346 2.895-1.037 1.363-.04 2.507-.29 3.43-.747.927-.457 1.897-1.316 2.914-2.576.386-.488.579-1.118.579-1.89 0-.428-.077-.763-.23-1.007-.151-.244-.36-.366-.624-.366-.306 0-.58.142-.824.427-1.341 1.667-2.51 2.693-3.506 3.08.04-.366.06-.65.06-.854 0-.712-.166-1.367-.502-1.967-.335-.6-.828-1.326-1.48-2.18-.446-.549-.776-1.006-.99-1.372-.213-.366-.32-.701-.32-1.006 0-.509.183-1.129.549-1.86.142-.265.254-.529.336-.793.08-.264.12-.458.12-.58 0-.223-.11-.386-.334-.487-.224-.102-.62-.153-1.19-.153-1.22 0-2.022.447-2.408 1.342a79.472 79.472 0 01-1.372 3.064c-.468.986-.874 1.774-1.22 2.363-.57.895-1.413 2.033-2.53 3.415l-.397.488c-.285.346-.427.722-.427 1.129 0 .345.102.635.305.869.203.233.468.35.793.35.406 0 .793-.183 1.159-.549a22.345 22.345 0 002.027-2.256c.62-.793 1.245-1.789 1.875-2.988.285.325.59.706.915 1.143.325.437.595.89.808 1.357.214.468.33.966.35 1.494a27.36 27.36 0 01-.807-.107 6.822 6.822 0 00-.93-.076c-.752 0-1.321.193-1.708.58a1.875 1.875 0 00-.58 1.372c0 .61.28 1.158.84 1.646.559.488 1.367.732 2.424.732zm13.66-.67c1.341 0 2.54-.438 3.597-1.312.306-.244.535-.549.687-.915.153-.366.229-.742.229-1.128 0-.386-.076-.716-.23-.99-.151-.275-.35-.412-.594-.412-.223 0-.447.101-.67.304a4.82 4.82 0 01-1.22.793c-.447.204-.833.305-1.16.305-.63 0-1.122-.178-1.478-.533-.356-.356-.61-.946-.763-1.769-.151-.823-.228-1.967-.228-3.43 0-.57.02-1.362.06-2.379h3.72c2.298 0 3.447-.701 3.447-2.104 0-.386-.071-.65-.213-.792-.143-.143-.377-.214-.702-.214H88.52C91.163 9.744 92.484 7 92.484 3.849c0-1.138-.244-2.083-.732-2.835-.488-.752-1.158-1.129-2.012-1.129-1.16 0-2.241.55-3.248 1.647-1.007 1.098-1.866 2.571-2.577 4.421-.711 1.85-1.24 3.893-1.585 6.13h-1.738c-.914 0-1.372.568-1.372 1.707 0 .488.107.843.32 1.067.213.224.624.335 1.234.335h1.19a40.14 40.14 0 00-.091 2.714c0 2.602.446 4.711 1.341 6.327.895 1.616 2.308 2.424 4.239 2.424v.001zm-1.465-15.033a42.45 42.45 0 01.84-4.498c.334-1.352.69-2.409 1.066-3.17.376-.763.717-1.144 1.022-1.144.448 0 .67.6.67 1.799 0 1.057-.3 2.23-.9 3.521-.599 1.291-1.498 2.455-2.698 3.492z"></path><path d="M12.139 2.531C13.96-.362 18.332-1.23 21.157.718c.953.754 1.446 1.956 1.562 3.132.235 2.221-.248 4.468-1.124 6.51-.134.38-.44.694-.842.792-1.065.276-2.248-.068-3.063-.783-.213-.213-.48-.528-.317-.841.46-1.217.77-2.5.836-3.802.07-.851-.486-1.68-1.241-2.06-.576-.252-1.156.186-1.478.628-1.435 2.14-1.677 5.124-.271 7.337.683 1.131 2.062 1.927 3.412 1.668 2.083-.258 4.17-.483 6.249-.764-.846 1.038-1.66 2.105-2.502 3.145-1.26.725-2.714 1.24-4.186 1.257-1.804 2.935-4.08 5.568-6.546 7.98-.973.845-1.875 1.99-3.23 2.198C7.119 27 6.16 25.989 5.353 25.073c-1.694-2.177-2.7-4.799-3.385-7.44C1.056 14.419.67 11.092.35 7.777.278 6.532.163 5.292.15 4.046c1.539.048 3.078.033 4.615.073.057 4.148.41 8.342 1.613 12.337.573 2.002 1.403 3.971 2.693 5.632.605-.484 1.087-1.095 1.63-1.642 1.145-1.37 2.387-2.684 3.277-4.234-1.984-1.316-3.07-3.623-3.247-5.93-.182-2.624-.097-5.478 1.408-7.751z"></path>
</g>
</svg>